# xmcd
#
# Track frame offsets: 
#        150
#        19871
#        38224
#        63207
#        86358
#        114488
#        130618
#        145748
#        168547
#        188628
#        205893
#        231831
#        252224
#        272262
#        299606
#        325781
#
# Disc length: 4748 seconds
#
# Revision: 0
# Processed by: cddbd v1.5.2PL0 Copyright (c) Steve Scherf et al.
# Submitted via: ExactAudioCopy v1.3
#
DISCID=da128a10
DTITLE=Various Artist - Akella Presents - vol. 154 - Electric Blues  
DTITLE=CD1
DYEAR=2018
DGENRE=Blues
TTITLE0=Wentus Blues Band - Rainbow
TTITLE1=Texas Blues Runners - Wasted
TTITLE2=RoosterHouse Gumbo Band - You Don't Treat Me Like You Used To
TTITLE3=Damon Fowler - Up the Line
TTITLE4=Russ Green - Believe In Love
TTITLE5=Big Ed Sullivan - 300 Pounds Of Brooklyn Love
TTITLE6=Johnny And The Headhunters - Lead Me On
TTITLE7=Wild T and The Spirit - My Next Ex-Wife
TTITLE8=The Bluesbones - Betrayal
TTITLE9=Marcus Lazarus - What Can't Speak Can't Lie
TTITLE10=Matty T Wall - Change Is Gonna Come
TTITLE11=Boz Scaggs - Those Lies
TTITLE12=Albert Cummings - Say You Love Me
TTITLE13=Rockwell Avenue Blues Band - Love Police
TTITLE14=Lew Jetton - Feels Like Rain
TTITLE15=Too Mutz Blues Band - Rocket Launcher
EXTD=
EXTT0=
EXTT1=
EXTT2=
EXTT3=
EXTT4=
EXTT5=
EXTT6=
EXTT7=
EXTT8=
EXTT9=
EXTT10=
EXTT11=
EXTT12=
EXTT13=
EXTT14=
EXTT15=
PLAYORDER=
